<svg width="32" height="33" fill="none" xmlns="http://www.w3.org/2000/svg"><path fill-rule="evenodd" clip-rule="evenodd" d="M9.955 6.118h1.909v1.909h3.181v-1.91h1.91v1.91h3.181v-1.91h1.91v1.91h3.136a1 1 0 011 1v2.182H5.818V9.027a1 1 0 011-1h3.137v-1.91zM5.818 25.48a1 1 0 001 1h18.364a1 1 0 001-1V13.118H5.818V25.48zm3.5-9.818H12.5v3.182H9.318v-3.182zm3.182 5.091H9.318v3.182H12.5v-3.182zm1.91-5.09h3.181v3.181h-3.182v-3.181zm3.181 5.09h-3.182v3.182h3.182v-3.182zm1.91-5.09h3.18v3.181h-3.18v-3.182z" fill="#17A1CC"/></svg>