<svg width="32" height="33" fill="none" xmlns="http://www.w3.org/2000/svg"><path d="M20.442 23.65v3.784c0 .602-.194 1.079-.58 1.431-.384.35-.896.525-1.536.525-.648 0-1.163-.172-1.544-.517-.381-.347-.572-.828-.572-1.443v-3.78h.98v3.788c0 .379.096.668.288.867.192.2.474.3.848.3.757 0 1.135-.4 1.135-1.198V23.65h.98zm5.145.793H23.82v4.87h-.976v-4.87h-1.75v-.793h4.492v.793zm4.959 3.027c-.058.603-.28 1.075-.67 1.415-.388.337-.906.505-1.551.505-.451 0-.85-.106-1.194-.319a2.123 2.123 0 01-.794-.913c-.186-.395-.284-.852-.291-1.373v-.53c0-.533.094-1.004.284-1.411.189-.407.46-.72.813-.941.355-.22.764-.33 1.229-.33.624 0 1.127.17 1.509.509.38.34.602.82.665 1.439h-.98c-.047-.407-.166-.7-.358-.88-.19-.18-.468-.271-.836-.271-.428 0-.758.156-.988.47-.229.311-.345.769-.35 1.373v.502c0 .612.108 1.078.326 1.4.22.321.542.482.965.482.386 0 .677-.087.871-.26.194-.174.318-.463.37-.868h.98z" fill="#17A1CC"/><path fill-rule="evenodd" clip-rule="evenodd" d="M16.91 9.073V7.21h2.726V5.39h-7.272v1.82h2.727v1.864c-4.587.457-8.182 4.338-8.182 9.045 0 4.59 3.42 8.397 7.846 9.006v-4.928h9.369a9.036 9.036 0 00.967-4.078c0-4.707-3.595-8.588-8.182-9.045zm6.3 14.577h-2.115v.793h1.428c.244-.25.473-.515.686-.793zm-2.769 2.398V23.65h-.98v2.874a9.07 9.07 0 00.98-.476zm-3.25 1.083V23.65h-.981v3.556c.331-.007.658-.033.98-.075zm3.354-8.104h-5.454v-5.455h1.818v3.637h3.636v1.818z" fill="#17A1CC"/></svg>