<svg width="32" height="33" viewBox="0 0 32 33" fill="none" xmlns="http://www.w3.org/2000/svg">
<path fill-rule="evenodd" clip-rule="evenodd" d="M9.9546 6.1178H11.8637V8.02689H15.0455V6.1178H16.9546V8.02689H20.1364V6.1178H22.0455V8.02689H25.1819C25.7342 8.02689 26.1819 8.4746 26.1819 9.02689V11.2087H5.81824V9.02689C5.81824 8.4746 6.26595 8.02689 6.81824 8.02689H9.9546V6.1178ZM5.81824 25.4814C5.81824 26.0337 6.26595 26.4814 6.81824 26.4814H25.1819C25.7342 26.4814 26.1819 26.0337 26.1819 25.4814V13.1178H5.81824V25.4814ZM9.31824 15.6633H12.5001V18.8451H9.31824V15.6633ZM12.5001 20.7542H9.31824V23.936H12.5001V20.7542ZM14.4091 15.6636H17.591V18.8454H14.4091V15.6636ZM17.591 20.7542H14.4091V23.936H17.591V20.7542ZM19.5001 15.6633H22.6819V18.8451H19.5001V15.6633Z" fill="#17A1CC"/>
</svg>
