<svg width="32" height="33" viewBox="0 0 32 33" fill="none" xmlns="http://www.w3.org/2000/svg">
<path d="M16.7881 22.6738L19.1395 20.3225C24.3854 15.0765 25.335 9.68879 25.5024 7.66511C25.5215 7.44588 25.4422 7.23083 25.2885 7.07475C25.1337 6.91867 24.9192 6.83884 24.6994 6.85492C22.6626 7.00445 17.229 7.91055 11.9783 13.1613L9.62635 15.5132L8.89956 15.3714C7.49782 15.0992 6.0514 15.5412 5.04105 16.5515L2.23459 19.358C2.06839 19.5242 2.00643 19.7696 2.07375 19.9954C2.14225 20.2212 2.32931 20.3904 2.56045 20.4357L4.91059 20.9069C5.57005 21.0397 6.17591 21.3632 6.65189 21.8392L7.68905 22.8763L6.32901 24.2364C6.0788 24.4866 6.07881 24.8917 6.32841 25.1413L7.15885 25.9717C7.40846 26.2213 7.81355 26.2213 8.06376 25.9711L9.4238 24.6111L10.4604 25.6477C10.9363 26.1236 11.2616 26.7289 11.3933 27.3907L11.8639 29.7391C11.9092 29.9702 12.0783 30.1573 12.3041 30.2258C12.5299 30.2931 12.7753 30.2312 12.9416 30.065L15.748 27.2585C16.7572 26.2493 17.1986 24.8023 16.9281 23.4L16.7881 22.6738ZM16.8918 15.4095C16.0304 14.5481 16.0298 13.1499 16.8912 12.2885C17.7532 11.4265 19.1508 11.4277 20.0122 12.2891C20.873 13.1499 20.8742 14.5475 20.0122 15.4095C19.1508 16.2709 17.7526 16.2704 16.8918 15.4095Z" fill="#17A1CC"/>
</svg>
