<svg width="32" height="33" viewBox="0 0 32 33" fill="none" xmlns="http://www.w3.org/2000/svg">
<path d="M20.4415 23.65V27.4342C20.4415 28.0357 20.2483 28.5128 19.862 28.8654C19.4783 29.2154 18.9662 29.3904 18.3258 29.3904C17.6776 29.3904 17.1629 29.218 16.7818 28.8732C16.4007 28.5258 16.2101 28.0448 16.2101 27.4303V23.65H17.1902V27.4381C17.1902 27.8166 17.2861 28.1057 17.4779 28.3054C17.6698 28.505 17.9524 28.6048 18.3258 28.6048C19.0829 28.6048 19.4614 28.2056 19.4614 27.407V23.65H20.4415Z" fill="#17A1CC"/>
<path d="M25.5868 24.4434H23.8212V29.3127H22.845V24.4434H21.0949V23.65H25.5868V24.4434Z" fill="#17A1CC"/>
<path d="M30.5455 27.4692C30.4885 28.0733 30.2655 28.5452 29.8766 28.8849C29.4877 29.2219 28.9704 29.3904 28.3248 29.3904C27.8737 29.3904 27.4757 29.2841 27.1308 29.0715C26.7886 28.8563 26.5241 28.5517 26.3375 28.1576C26.1508 27.7635 26.0535 27.3059 26.0458 26.7847V26.2558C26.0458 25.7217 26.1404 25.2511 26.3297 24.844C26.5189 24.437 26.7899 24.1232 27.1425 23.9028C27.4977 23.6825 27.9074 23.5723 28.3715 23.5723C28.9963 23.5723 29.4993 23.7421 29.8805 24.0817C30.2616 24.4214 30.4833 24.9011 30.5455 25.5207H29.5655C29.5188 25.1137 29.3995 24.8207 29.2077 24.6418C29.0184 24.4603 28.7397 24.3695 28.3715 24.3695C27.9437 24.3695 27.6144 24.5264 27.3836 24.8401C27.1555 25.1513 27.0388 25.6089 27.0336 26.213V26.7147C27.0336 27.3266 27.1425 27.7933 27.3603 28.1148C27.5807 28.4363 27.9022 28.5971 28.3248 28.5971C28.7111 28.5971 29.0015 28.5102 29.196 28.3365C29.3904 28.1628 29.5136 27.8737 29.5655 27.4692H30.5455Z" fill="#17A1CC"/>
<path fill-rule="evenodd" clip-rule="evenodd" d="M16.9091 9.07317V7.20862H19.6363V5.39044H12.3636V7.20862H15.0909V9.07317C10.5036 9.53044 6.90906 13.4114 6.90906 18.1177C6.90906 22.7084 10.3294 26.5152 14.7555 27.1238V22.1955H24.124C24.7424 20.9684 25.0909 19.583 25.0909 18.1177C25.0909 13.4114 21.4963 9.53044 16.9091 9.07317ZM23.2092 23.65H21.0948V24.4434H22.5232C22.7666 24.1925 22.9957 23.9276 23.2092 23.65ZM20.4414 26.048V23.65H19.4614V26.524C19.7987 26.3846 20.1258 26.2254 20.4414 26.048ZM17.1901 27.1311V23.65H16.21V27.2062C16.5413 27.1987 16.8683 27.1733 17.1901 27.1311ZM20.5454 19.0268H15.0909V13.5723H16.9091V17.2086H20.5454V19.0268Z" fill="#17A1CC"/>
</svg>
