<?xml version="1.0" standalone="no"?>
<!DOCTYPE svg PUBLIC "-//W3C//DTD SVG 20010904//EN"
 "http://www.w3.org/TR/2001/REC-SVG-20010904/DTD/svg10.dtd">
<svg version="1.0" xmlns="http://www.w3.org/2000/svg"
 width="800.000000pt" height="800.000000pt" viewBox="0 0 800.000000 800.000000"
 preserveAspectRatio="xMidYMid meet">
<metadata>
Created by potrace 1.11, written by Peter Selinger 2001-2013
</metadata>
<g transform="translate(0.000000,800.000000) scale(0.100000,-0.100000)"
fill="#000000" stroke="none">
<path d="M7377 7724 c-2 -2 -35 -6 -73 -9 -72 -6 -92 -8 -159 -18 -22 -4 -58
-9 -80 -12 -22 -3 -76 -12 -120 -20 -44 -8 -96 -17 -115 -20 -19 -3 -44 -9
-55 -12 -11 -4 -27 -8 -35 -8 -8 -1 -26 -5 -40 -8 -14 -4 -80 -20 -147 -36
-68 -16 -126 -32 -131 -35 -5 -3 -21 -7 -37 -10 -71 -13 -528 -169 -652 -222
-18 -8 -48 -20 -65 -28 -18 -8 -55 -24 -83 -36 -27 -12 -66 -29 -85 -37 -156
-66 -668 -338 -762 -404 -14 -11 -31 -19 -36 -19 -6 0 -12 -3 -14 -8 -1 -4
-39 -30 -83 -57 -44 -27 -86 -55 -93 -61 -6 -7 -21 -16 -32 -19 -11 -3 -20
-11 -20 -16 0 -5 -6 -9 -14 -9 -8 0 -16 -3 -18 -8 -1 -4 -41 -34 -88 -66 -47
-33 -87 -62 -90 -66 -3 -3 -30 -23 -60 -45 -30 -22 -56 -43 -58 -47 -2 -5 -9
-8 -16 -8 -6 0 -18 -9 -26 -20 -8 -11 -20 -20 -26 -20 -7 0 -14 -3 -16 -7 -1
-5 -31 -30 -66 -58 -35 -27 -76 -61 -91 -75 -15 -14 -36 -32 -47 -40 -25 -20
-166 -143 -224 -195 -25 -22 -262 -256 -528 -520 -393 -391 -488 -480 -510
-480 -23 -1 -80 9 -237 41 -113 23 -314 24 -447 3 -212 -34 -391 -105 -577
-230 -78 -52 -178 -147 -601 -568 -297 -297 -514 -521 -524 -542 -56 -118 7
-247 137 -284 34 -10 70 -19 82 -20 18 -3 43 -8 150 -29 17 -4 41 -9 55 -12
14 -3 36 -8 50 -10 14 -3 50 -10 80 -16 30 -6 62 -12 70 -14 8 -1 40 -7 70
-14 54 -11 70 -14 120 -24 119 -22 195 -43 269 -73 180 -72 265 -136 517 -389
l184 -184 -231 -232 c-141 -141 -237 -245 -246 -267 -19 -44 -19 -118 0 -163
14 -34 271 -300 339 -352 53 -40 137 -47 198 -16 27 14 129 108 268 246 123
123 226 224 228 224 4 0 363 -360 400 -402 68 -76 186 -295 201 -371 3 -18 9
-39 14 -48 7 -14 23 -94 35 -174 2 -16 9 -45 15 -63 6 -18 8 -36 5 -39 -3 -3
-1 -13 4 -22 4 -9 11 -37 15 -61 4 -25 8 -48 11 -51 2 -4 6 -22 8 -40 3 -19
17 -92 31 -164 15 -71 29 -141 31 -155 9 -47 35 -115 52 -135 54 -64 136 -88
219 -64 44 12 87 52 549 513 513 514 583 592 668 749 58 107 117 261 130 339
3 15 7 31 10 36 4 7 12 62 22 167 14 138 1 290 -42 500 -3 11 -7 36 -10 55 -3
19 -8 39 -11 43 -2 4 181 194 409 421 453 455 520 523 652 671 50 55 93 102
98 103 4 2 8 8 8 13 0 5 8 17 18 27 35 37 78 88 107 127 17 21 37 46 45 55 8
8 62 78 120 155 58 77 107 142 110 145 10 10 57 79 167 245 62 94 117 175 123
182 5 7 10 19 10 27 0 8 4 16 8 18 10 4 72 105 72 118 0 6 5 10 10 10 6 0 10
4 10 8 0 5 32 67 72 138 89 161 236 464 303 624 15 36 32 76 38 90 6 14 11 27
11 30 1 3 15 41 33 85 51 130 144 406 169 500 1 6 17 64 34 130 18 66 34 128
36 138 2 9 6 25 8 35 19 78 30 131 47 222 34 183 31 168 44 265 3 28 8 66 11
85 3 19 7 62 10 94 3 33 5 62 6 65 0 3 -1 8 -2 11 -1 3 -3 19 -4 35 -6 63 -75
165 -111 165 -7 0 -15 5 -17 11 -2 6 -17 13 -33 16 -41 6 -134 11 -138 7z
m-1815 -1543 c169 -36 307 -122 427 -268 24 -29 39 -53 35 -53 -4 0 0 -8 8
-17 22 -27 57 -107 76 -176 17 -64 23 -254 9 -312 -3 -16 -9 -43 -13 -60 -27
-123 -150 -297 -269 -381 -45 -32 -145 -85 -145 -78 0 4 -6 2 -12 -4 -33 -26
-149 -46 -263 -46 -79 1 -99 3 -182 24 -48 11 -156 60 -161 72 -2 4 -10 8 -17
8 -22 0 -141 106 -188 168 -67 87 -119 199 -133 289 -3 20 -8 45 -10 57 -6 29
-5 132 1 181 11 98 79 261 138 333 26 31 103 108 139 138 32 26 151 87 202
104 105 34 252 43 358 21z"/>
</g>
</svg>
