<svg version="1.0" xmlns="http://www.w3.org/2000/svg" width="1066.667" height="1066.667" viewBox="0 0 800 800"><path d="M737.7 27.6c-.2.2-3.5.6-7.3.9-7.2.6-9.2.8-15.9 1.8-2.2.4-5.8.9-8 1.2-2.2.3-7.6 1.2-12 2s-9.6 1.7-11.5 2c-1.9.3-4.4.9-5.5 1.2-1.1.4-2.7.8-3.5.8-.8.1-2.6.5-4 .8-1.4.4-8 2-14.7 3.6-6.8 1.6-12.6 3.2-13.1 3.5-.5.3-2.1.7-3.7 1-7.1 1.3-52.8 16.9-65.2 22.2-1.8.8-4.8 2-6.5 2.8-1.8.8-5.5 2.4-8.3 3.6-2.7 1.2-6.6 2.9-8.5 3.7-15.6 6.6-66.8 33.8-76.2 40.4-1.4 1.1-3.1 1.9-3.6 1.9-.6 0-1.2.3-1.4.8-.1.4-3.9 3-8.3 5.7s-8.6 5.5-9.3 6.1c-.6.7-2.1 1.6-3.2 1.9-1.1.3-2 1.1-2 1.6s-.6.9-1.4.9c-.8 0-1.6.3-1.8.8-.1.4-4.1 3.4-8.8 6.6-4.7 3.3-8.7 6.2-9 6.6-.3.3-3 2.3-6 4.5s-5.6 4.3-5.8 4.7c-.2.5-.9.8-1.6.8-.6 0-1.8.9-2.6 2s-2 2-2.6 2c-.7 0-1.4.3-1.6.7-.1.5-3.1 3-6.6 5.8-3.5 2.7-7.6 6.1-9.1 7.5-1.5 1.4-3.6 3.2-4.7 4-2.5 2-16.6 14.3-22.4 19.5-2.5 2.2-26.2 25.6-52.8 52-39.3 39.1-48.8 48-51 48-2.3.1-8-.9-23.7-4.1-11.3-2.3-31.4-2.4-44.7-.3-21.2 3.4-39.1 10.5-57.7 23-7.8 5.2-17.8 14.7-60.1 56.8-29.7 29.7-51.4 52.1-52.4 54.2-5.6 11.8.7 24.7 13.7 28.4 3.4 1 7 1.9 8.2 2 1.8.3 4.3.8 15 2.9 1.7.4 4.1.9 5.5 1.2 1.4.3 3.6.8 5 1 1.4.3 5 1 8 1.6 3 .6 6.2 1.2 7 1.4.8.1 4 .7 7 1.4 5.4 1.1 7 1.4 12 2.4 11.9 2.2 19.5 4.3 26.9 7.3 18 7.2 26.5 13.6 51.7 38.9L198 540l-23.1 23.2c-14.1 14.1-23.7 24.5-24.6 26.7-1.9 4.4-1.9 11.8 0 16.3 1.4 3.4 27.1 30 33.9 35.2 5.3 4 13.7 4.7 19.8 1.6 2.7-1.4 12.9-10.8 26.8-24.6 12.3-12.3 22.6-22.4 22.8-22.4.4 0 36.3 36 40 40.2 6.8 7.6 18.6 29.5 20.1 37.1.3 1.8.9 3.9 1.4 4.8.7 1.4 2.3 9.4 3.5 17.4.2 1.6.9 4.5 1.5 6.3.6 1.8.8 3.6.5 3.9-.3.3-.1 1.3.4 2.2.4.9 1.1 3.7 1.5 6.1.4 2.5.8 4.8 1.1 5.1.2.4.6 2.2.8 4 .3 1.9 1.7 9.2 3.1 16.4 1.5 7.1 2.9 14.1 3.1 15.5.9 4.7 3.5 11.5 5.2 13.5 5.4 6.4 13.6 8.8 21.9 6.4 4.4-1.2 8.7-5.2 54.9-51.3 51.3-51.4 58.3-59.2 66.8-74.9 5.8-10.7 11.7-26.1 13-33.9.3-1.5.7-3.1 1-3.6.4-.7 1.2-6.2 2.2-16.7 1.4-13.8.1-29-4.2-50-.3-1.1-.7-3.6-1-5.5-.3-1.9-.8-3.9-1.1-4.3-.2-.4 18.1-19.4 40.9-42.1 45.3-45.5 52-52.3 65.2-67.1 5-5.5 9.3-10.2 9.8-10.3.4-.2.8-.8.8-1.3s.8-1.7 1.8-2.7c3.5-3.7 7.8-8.8 10.7-12.7 1.7-2.1 3.7-4.6 4.5-5.5.8-.8 6.2-7.8 12-15.5s10.7-14.2 11-14.5c1-1 5.7-7.9 16.7-24.5 6.2-9.4 11.7-17.5 12.3-18.2.5-.7 1-1.9 1-2.7 0-.8.4-1.6.8-1.8 1-.4 7.2-10.5 7.2-11.8 0-.6.5-1 1-1 .6 0 1-.4 1-.8 0-.5 3.2-6.7 7.2-13.8 8.9-16.1 23.6-46.4 30.3-62.4 1.5-3.6 3.2-7.6 3.8-9 .6-1.4 1.1-2.7 1.1-3 .1-.3 1.5-4.1 3.3-8.5 5.1-13 14.4-40.6 16.9-50 .1-.6 1.7-6.4 3.4-13 1.8-6.6 3.4-12.8 3.6-13.8.2-.9.6-2.5.8-3.5 1.9-7.8 3-13.1 4.7-22.2 3.4-18.3 3.1-16.8 4.4-26.5.3-2.8.8-6.6 1.1-8.5.3-1.9.7-6.2 1-9.4.3-3.3.5-6.2.6-6.5 0-.3-.1-.8-.2-1.1-.1-.3-.3-1.9-.4-3.5-.6-6.3-7.5-16.5-11.1-16.5-.7 0-1.5-.5-1.7-1.1-.2-.6-1.7-1.3-3.3-1.6-4.1-.6-13.4-1.1-13.8-.7zM556.2 181.9c16.9 3.6 30.7 12.2 42.7 26.8 2.4 2.9 3.9 5.3 3.5 5.3-.4 0 0 .8.8 1.7 2.2 2.7 5.7 10.7 7.6 17.6 1.7 6.4 2.3 25.4.9 31.2-.3 1.6-.9 4.3-1.3 6-2.7 12.3-15 29.7-26.9 38.1-4.5 3.2-14.5 8.5-14.5 7.8 0-.4-.6-.2-1.2.4-3.3 2.6-14.9 4.6-26.3 4.6-7.9-.1-9.9-.3-18.2-2.4-4.8-1.1-15.6-6-16.1-7.2-.2-.4-1-.8-1.7-.8-2.2 0-14.1-10.6-18.8-16.8-6.7-8.7-11.9-19.9-13.3-28.9-.3-2-.8-4.5-1-5.7-.6-2.9-.5-13.2.1-18.1 1.1-9.8 7.9-26.1 13.8-33.3 2.6-3.1 10.3-10.8 13.9-13.8 3.2-2.6 15.1-8.7 20.2-10.4 10.5-3.4 25.2-4.3 35.8-2.1z"/></svg>