<svg width="243" height="30" fill="none" xmlns="http://www.w3.org/2000/svg"><path d="M56.6 11.092H36.063l-.76.57v18.333h5.684V23.12l.543-.488H56.6c3.804 0 5.588-1.027 5.588-3.663V14.76c0-2.64-1.784-3.668-5.59-3.668zm0 6.777c0 1.242-.82 1.5-2.603 1.5H41.593l-.606-.59V14.85l.543-.498h12.467c1.784 0 2.602.255 2.602 1.503v2.013zm15.955-3.309l4.892 7.191-.271.697H66.358l-2.762 3.409H79.7l1.116.682 2.5 3.46h6.506L75.56 10.857m61.683 15.419v-5.088l.585-.507h10.883v-3.24h-17.249v12.558h25.444v-3.225h-19.052m19.321-15.682h-25.713v3.562h25.713v-3.562zm-54.391 3.373h20.715c-.32-2.643-1.954-3.376-6.1-3.376h-14.836c-4.678 0-6.17.916-6.17 4.47v9.967c0 3.557 1.492 4.473 6.17 4.473h14.836c4.207 0 5.818-.793 5.928-3.534h-20.543l-.609-.576V14.851M21.48 18.458H6.41l-.444-.49v-3.235l.442-.343h20.315l.277-.68c-.692-1.787-2.483-2.62-5.81-2.62H7.076c-4.675 0-6.17.916-6.17 4.469v2.09c0 3.557 1.495 4.472 6.17 4.472h15.036l.473.416v3.382l-.386.527H5.001v-.016H.496s-.515.26-.495.38C.385 29.297 2.072 30 6.11 30h15.37c4.675 0 6.214-.916 6.214-4.473v-2.604c0-3.55-1.54-4.465-6.214-4.465zm151.869-7.444h-8.458l-.459.877 9.393 6.871a94.418 94.418 0 015.822-3.116m1.282 8.312L189.185 30h8.562l.354-.8-12.328-9.056a96.536 96.536 0 00-4.844 3.814z" fill="#fff"/><path d="M172.091 29.986h-7.653l-.647-1.016c5.204-5.042 28.477-26.655 79.066-28.97 0 0-42.462 1.437-70.766 29.986z" fill="#17A1CC"/></svg>