<svg version="1.0" xmlns="http://www.w3.org/2000/svg" width="704" height="704" viewBox="0 0 528 528"><path d="M393 110.7c-4.7.6-10.3 1.5-12.5 1.8-7.1 1-26.9 5.7-29 6.8-1.1.6-2.2 1-2.5.8-.3-.1-3.6.8-7.5 2.1-3.8 1.2-7.2 2.2-7.5 2.3-.3.1-1.4.5-2.5 1-1.1.4-5.8 2.2-10.5 4-4.7 1.8-11.4 4.7-15.1 6.4-3.6 1.6-7.6 3.5-9 4.1-7 3.1-26.2 14-26.7 15.2-.2.4-.8.8-1.3.8-.7 0-13.6 8-16.4 10.2-1.8 1.4-17.7 13.2-19.9 14.8-1.2.8-2.8 2.1-3.6 3-.8.8-3.7 3.3-6.4 5.4-6.5 5.2-5.7 4.5-34.8 33.3-27.8 27.6-24.8 25.5-34.8 23.7-6.5-1.3-7.5-1.3-16-1.4-9.5 0-8.8-.1-18.7 2.5-4 1-7.3 2.2-7.3 2.7 0 .4-.8.8-1.7.8-1.5 0-8.9 4.5-16.7 10-1.2.8-13.2 12.8-26.9 26.6-24.5 24.9-24.7 25-24.7 29.3 0 3.5.6 4.8 3.1 7.2 1.7 1.6 4 3 5 3 1 .1 2.2.2 2.7.3.4.1 2.7.6 5.2 1.1 2.5.5 4.7.9 5 1 .3 0 2.1.4 4 .8s4.6 1 6 1.3c1.4.3 3.4.7 4.5.9 13 2.5 18.9 4.2 24.8 7.4 6.9 3.7 8.8 5.3 20.4 16.9l9.3 9.2-11.5 11.6c-11.5 11.4-13.7 14.5-13 18 .2 1.1.4 2.5.4 3.1.2 2.3 17.9 19 20.8 19.6 4.6.9 7.8-1.3 19.7-13.1l11.4-11.4 10.1 10.1c5.6 5.5 10.1 10.3 10.1 10.6 0 .3.9 1.5 1.9 2.7 5.3 5.6 9.6 19.8 14.7 47.6.2 1.2.6 3.3.9 4.7.3 1.4.7 3.7 1 5.2 1.3 6.4 7.1 10.4 13 8.9 3.1-.8 52.3-49.6 57.3-56.7 9-13.1 14.2-33.9 11.8-46.4-.8-4.3-1.8-13.5-1.5-13.8.2-.2-.1-1-.8-1.8-1-1.3 3.2-5.9 24.5-27.5 26.3-26.5 29.4-29.8 37.2-39.4 2.5-3 4.9-6 5.5-6.6.5-.7 1.9-2.4 3-4 1.1-1.5 3.6-4.8 5.5-7.3s4.9-6.6 6.5-9.1c1.6-2.5 3.2-4.7 3.5-5 .3-.3 2.6-3.8 5-7.9 2.5-4 5.5-9 6.7-11 9.2-15.2 26.3-53.5 29.8-67.1.2-.8 1.2-4.2 2.1-7.5.9-3.3 1.8-6.7 1.9-7.5.2-.8.4-1.6.5-1.8.3-.3.4-.6 1.8-7.2 1.9-8.5 2.2-10.3 2.7-13.5.2-1.7.6-4.4.9-6 2.3-13.7 1.4-20.9-2.7-24.3-2.6-2.2-10-2.8-18.7-1.5zm-74.3 79.4c11 5.3 18.6 16.5 19.6 29.1.5 5.2-1.5 15.1-3.3 17.3-.6.7-.8 1.4-.5 1.7.3.2-1.9 3.2-4.9 6.5-17.4 19.2-47.5 14.7-58.5-8.7-2.2-4.7-2.6-6.9-2.5-14.5 0-7.8.3-9.8 2.8-14.8 8.7-18 29.2-25.2 47.3-16.6z"/></svg>